<?xml version="1.0"?>
<svg xmlns="http://www.w3.org/2000/svg" id="_x33_0" enable-background="new 0 0 64 64" height="512px" viewBox="0 0 64 64" width="512px"><path d="m17 26h-2c-1.103 0-2 .897-2 2v2c0 1.103.897 2 2 2h2c1.103 0 2-.897 2-2v-2c0-1.103-.897-2-2-2zm-2 4v-2h2l.001 2z" fill="#FFFFFF"/><path d="m25 26h-2c-1.103 0-2 .897-2 2v2c0 1.103.897 2 2 2h2c1.103 0 2-.897 2-2v-2c0-1.103-.897-2-2-2zm-2 4v-2h2l.001 2z" fill="#FFFFFF"/><path d="m56.793 61c-1.257 0-1.833-.371-2.561-.841-.844-.543-1.799-1.159-3.646-1.159-1.845 0-2.801.616-3.644 1.159-.727.47-1.302.841-2.558.841-1.254 0-1.829-.371-2.556-.84-.843-.544-1.797-1.16-3.641-1.16-1.845 0-2.8.616-3.642 1.159-.729.47-1.303.841-2.559.841-1.255 0-1.83-.371-2.558-.84-.842-.544-1.797-1.16-3.641-1.16-1.845 0-2.799.616-3.642 1.16-.727.469-1.302.84-2.557.84s-1.83-.371-2.558-.84c-.842-.544-1.797-1.16-3.641-1.16s-2.798.616-3.641 1.16c-.727.469-1.301.84-2.555.84-1.253 0-1.827-.371-2.554-.84-.842-.544-1.796-1.16-3.639-1.16v2c1.253 0 1.828.371 2.554.84.842.544 1.796 1.16 3.639 1.16 1.844 0 2.798-.616 3.641-1.16.727-.469 1.301-.84 2.556-.84s1.83.371 2.558.84c.842.544 1.797 1.16 3.642 1.16s2.799-.616 3.641-1.16c.728-.469 1.302-.84 2.558-.84 1.255 0 1.83.371 2.557.84.843.544 1.797 1.16 3.642 1.16s2.8-.616 3.643-1.16c.728-.469 1.303-.84 2.558-.84 1.254 0 1.829.371 2.556.84.84.544 1.795 1.16 3.639 1.16 1.845 0 2.8-.616 3.643-1.159.728-.47 1.303-.841 2.559-.841 1.257 0 1.833.371 2.562.841.844.543 1.799 1.159 3.645 1.159s2.802-.616 3.645-1.159c.729-.47 1.305-.841 2.562-.841v-2c-1.846 0-2.802.616-3.645 1.159-.729.47-1.305.841-2.562.841z" fill="#FFFFFF"/><path d="m56.793 56c-1.257 0-1.833-.371-2.561-.841-.844-.543-1.799-1.159-3.646-1.159-1.845 0-2.801.616-3.644 1.159-.727.47-1.302.841-2.558.841-1.254 0-1.829-.371-2.556-.84-.843-.544-1.797-1.16-3.641-1.16-1.845 0-2.8.616-3.642 1.159-.729.47-1.303.841-2.559.841-1.255 0-1.83-.371-2.558-.84-.842-.544-1.797-1.16-3.641-1.16-1.845 0-2.799.616-3.642 1.16-.727.469-1.302.84-2.557.84s-1.83-.371-2.558-.84c-.842-.544-1.797-1.16-3.641-1.16s-2.798.616-3.641 1.16c-.727.469-1.301.84-2.555.84-1.253 0-1.827-.371-2.554-.84-.842-.544-1.796-1.16-3.639-1.16v2c1.253 0 1.828.371 2.554.84.842.544 1.796 1.16 3.639 1.16 1.844 0 2.798-.616 3.641-1.16.727-.469 1.301-.84 2.556-.84s1.83.371 2.558.84c.842.544 1.797 1.16 3.642 1.16s2.799-.616 3.641-1.16c.728-.469 1.302-.84 2.558-.84 1.255 0 1.83.371 2.557.84.843.544 1.797 1.16 3.642 1.16s2.8-.616 3.643-1.16c.728-.469 1.303-.84 2.558-.84 1.254 0 1.829.371 2.556.84.84.544 1.795 1.16 3.639 1.16 1.845 0 2.8-.616 3.643-1.159.728-.47 1.303-.841 2.559-.841 1.257 0 1.833.371 2.562.841.844.543 1.799 1.159 3.645 1.159s2.802-.616 3.645-1.159c.729-.47 1.305-.841 2.562-.841v-2c-1.846 0-2.802.616-3.645 1.159-.729.47-1.305.841-2.562.841z" fill="#FFFFFF"/><path d="m59.355 50.159c-.729.47-1.305.841-2.562.841s-1.833-.371-2.561-.841c-.28-.18-.577-.367-.91-.539 3.862-3.037 5.678-7.423 5.678-13.62v-5h-4v-4c0-1.103-.897-2-2-2h-2v-4c0-1.103-.897-2-2-2h-6c-1.103 0-2 .897-2 2v4h-2c-1.103 0-2 .897-2 2v4h-.781l-3.074-7.127c-.377-.935-1.186-1.591-2.146-1.797v-8.076c0-1.103-.897-2-2-2h-.213c-.32-.757-.957-1.376-1.586-1.977-1.081-1.036-2.2-2.107-2.2-4.023 0-1.626 1.539-3 3.361-3 1.455 0 2.639 1.184 2.639 2.639v.361c0 .551-.449 1-1 1s-1-.449-1-1v-1h-2v1c0 1.654 1.346 3 3 3s3-1.346 3-3v-.361c0-2.558-2.081-4.639-4.639-4.639-2.906 0-5.361 2.29-5.361 5 0 2.77 1.629 4.329 2.818 5.468.191.183.37.359.538.532h-1.494c-.297-1.059-1.042-1.675-1.723-2.228-1.052-.852-2.139-1.734-2.139-4.772h-2c0 3.991 1.665 5.341 2.88 6.326.348.282.592.495.772.709-.937.166-1.652.981-1.652 1.965v8h-2v-2c0-1.103-.897-2-2-2h-.571c.135-.193.287-.398.476-.638.884-1.129 2.095-2.674 2.095-5.362 0-2.71-2.455-5-5.361-5-2.558 0-4.639 2.081-4.639 4.639v.361c0 1.654 1.346 3 3 3s3-1.346 3-3v-1h-2v1c0 .551-.449 1-1 1s-1-.449-1-1v-.361c0-1.455 1.184-2.639 2.639-2.639 1.822 0 3.361 1.374 3.361 3 0 1.998-.849 3.081-1.669 4.128-.453.578-.911 1.173-1.154 1.872h-1.177c-.06 0-6-.447-6-6 0-6.495-4.592-7-6-7v2c1.825 0 4 .868 4 5 0 4.903 3.563 6.94 6.034 7.66-.019.111-.034.224-.034.34v2.93c-.966.684-1.69 1.698-1.976 2.926l-1.825 8.144h-4.199v5c0 4.816 1.791 8.797 5.29 11.874-.308.079-.659.126-1.097.126-1.253 0-1.827-.371-2.554-.84-.842-.544-1.796-1.16-3.639-1.16v2c1.253 0 1.828.371 2.554.84.842.544 1.796 1.16 3.639 1.16 1.844 0 2.798-.616 3.641-1.16.727-.469 1.301-.84 2.556-.84s1.83.371 2.558.84c.842.544 1.797 1.16 3.642 1.16s2.799-.616 3.641-1.16c.728-.469 1.302-.84 2.558-.84 1.255 0 1.83.371 2.557.84.843.544 1.797 1.16 3.642 1.16s2.8-.616 3.643-1.16c.728-.469 1.303-.84 2.558-.84 1.254 0 1.829.371 2.556.84.84.544 1.795 1.16 3.639 1.16 1.845 0 2.8-.616 3.643-1.159.728-.47 1.303-.841 2.559-.841 1.257 0 1.833.371 2.562.841.844.543 1.799 1.159 3.645 1.159s2.802-.616 3.645-1.159c.729-.47 1.305-.841 2.562-.841v-2c-1.846 0-2.802.616-3.645 1.159zm-6.355-23.159v4h-4.184c-.302-.847-.969-1.514-1.816-1.816v-2.184h2v2h2v-2zm-7 6c-.551 0-1-.449-1-1s.449-1 1-1 1 .449 1 1-.449 1-1 1zm-3-12h2v2h2v-2h2v4h-2c-.366 0-.705.106-1 .278-.295-.172-.634-.278-1-.278h-2zm-4 6h2v2h2v-2h2v2.184c-.847.302-1.514.969-1.816 1.816h-4.184zm-5.39 3h-2.61v-2h1.748zm-4.61-14h-6v-2h6zm-6 2h6v4h-6zm-10 2h4v2h-3.103c-.306 0-.605.03-.897.082zm-2.026 6.301c.316-1.355 1.518-2.301 2.923-2.301h16.464c.413 0 .777.244.938.643l.586 1.357h-.885c-1.103 0-2 .897-2 2v2c0 1.103.897 2 2 2h3.473l.267.619-.461 1.381h-25.03zm35.969 23.858c-.728.47-1.303.841-2.559.841-1.254 0-1.829-.371-2.556-.84-.843-.544-1.797-1.16-3.641-1.16-1.845 0-2.8.616-3.642 1.159-.729.47-1.303.841-2.559.841-1.255 0-1.83-.371-2.558-.84-.842-.544-1.797-1.16-3.641-1.16-1.845 0-2.799.616-3.642 1.16-.727.469-1.302.84-2.557.84s-1.83-.371-2.558-.84c-.842-.544-1.797-1.16-3.641-1.16-1.522 0-2.435.421-3.182.873-1.984-1.581-3.389-3.417-4.232-5.539.559-.832 3.142-4.334 7.025-4.334h16v-2h-16c-3.668 0-6.314 2.333-7.716 3.958-.179-.939-.284-1.919-.284-2.958v-3h30.721l1-3h6.464c.302.847.969 1.514 1.816 1.816v7.256c-.285-.144-.552-.259-.788-.36-.98-.419-1.213-.519-1.213-1.712 0-2.201-1.794-3-3-3l-.012 2c.462.012 1.012.194 1.012 1 0 2.515 1.29 3.065 2.427 3.551.609.26 1.239.529 1.866 1.156l.707.707.707-.707c.627-.627 1.257-.896 1.866-1.156 1.137-.486 2.427-1.036 2.427-3.551 0-.806.55-.988 1-1v-2c-1.206 0-3 .799-3 3 0 1.193-.233 1.293-1.212 1.712-.235.1-.503.216-.788.36v-7.256c.847-.302 1.514-.969 1.816-1.816h8.184v3c0 6.302-1.949 10.324-6.298 13.005-.04-.001-.075-.005-.116-.005-1.845 0-2.8.616-3.643 1.159z" fill="#FFFFFF"/><path d="m31 38h2v2h-2z" fill="#FFFFFF"/></svg>
