<?xml version="1.0"?>
<svg xmlns="http://www.w3.org/2000/svg" height="512px" viewBox="0 0 64 64" width="512px"><path d="m61.27 40.04-14-4a.991.991 0 0 0 -.54 0l-14 4a1 1 0 0 0 -.73.96v4a1.014 1.014 0 0 0 .4.8.97.97 0 0 0 .87.16l1.73-.49v15.53a1 1 0 0 0 1 1h22a1 1 0 0 0 1-1v-15.53l1.73.49a.842.842 0 0 0 .27.04 1 1 0 0 0 1-1v-4a1 1 0 0 0 -.73-.96zm-12.27 19.96h-4v-8h4zm8 0h-6v-9a1 1 0 0 0 -1-1h-6a1 1 0 0 0 -1 1v9h-6v-15.1l10-2.86 10 2.86zm3-16.33-12.73-3.63a.931.931 0 0 0 -.54 0l-12.73 3.63v-1.92l13-3.71 13 3.71z" fill="#FFFFFF"/><path d="m21 2h-18a1 1 0 0 0 -1 1v18a1 1 0 0 0 1 1h18a1 1 0 0 0 1-1v-18a1 1 0 0 0 -1-1zm-10 2h2v3.22l-2 .5zm-7 0h5v1h-5zm16 16h-16v-13h5v2a.99.99 0 0 0 1 1 .986.986 0 0 0 .24-.03l4-1a1 1 0 0 0 .76-.97v-1h5zm0-15h-5v-1h5z" fill="#FFFFFF"/><path d="m6 15h4v2h-4z" fill="#FFFFFF"/><path d="m13 42.5a9.511 9.511 0 0 1 9.5-9.5h20.5a7 7 0 0 0 0-14h-4v2h4a5 5 0 0 1 0 10h-20.5a11.5 11.5 0 0 0 0 23h1.5v-2h-1.5a9.511 9.511 0 0 1 -9.5-9.5z" fill="#FFFFFF"/><path d="m32 17a1 1 0 0 0 .823-.432c.698-1.009 4.177-6.168 4.177-8.568a5 5 0 0 0 -10 0c0 2.4 3.479 7.559 4.177 8.568a1 1 0 0 0 .823.432zm0-12a3 3 0 0 1 3 3c0 1.092-1.561 3.943-3 6.192-1.439-2.249-3-5.1-3-6.192a3 3 0 0 1 3-3z" fill="#FFFFFF"/><circle cx="32" cy="8" r="2" fill="#FFFFFF"/><path d="m26 52h2v2h-2z" fill="#FFFFFF"/><path d="m30 52h2v2h-2z" fill="#FFFFFF"/><path d="m31 19h2v2h-2z" fill="#FFFFFF"/><path d="m35 19h2v2h-2z" fill="#FFFFFF"/></svg>
