<?xml version="1.0"?>
<svg xmlns="http://www.w3.org/2000/svg" viewBox="0 0 512 512" width="512px" height="512px"><g id="Location-2" data-name="Location"><path d="M184,320.889a8,8,0,0,0,6.405-3.208c5.9-7.879,57.6-77.923,57.6-110.57a64,64,0,0,0-128,0c0,32.647,51.7,102.691,57.6,110.57A8,8,0,0,0,184,320.889Zm0-161.778a48.054,48.054,0,0,1,48,48c0,20.381-30.386,67.386-48,92.179-17.615-24.787-48-71.783-48-92.179A48.054,48.054,0,0,1,184,159.111Z" fill="#FFFFFF"/><path d="M217,205a33,33,0,1,0-33,33A33.038,33.038,0,0,0,217,205Zm-50,0a17,17,0,1,1,17,17A17.019,17.019,0,0,1,167,205Z" fill="#FFFFFF"/><path d="M280,176H392a8,8,0,0,0,8-8V56a8,8,0,0,0-8-8H280a8,8,0,0,0-8,8V168A8,8,0,0,0,280,176ZM352,64V97.052l-11.562-7.708a8,8,0,0,0-8.876,0L320,97.052V64Zm-64,0h16v48a8,8,0,0,0,12.438,6.656L336,105.615l19.562,13.041A8,8,0,0,0,368,112V64h16v96H288Z" fill="#FFFFFF"/><path d="M496,384H280V368H392a8,8,0,0,0,8-8V328a8,8,0,0,0-8-8H344V232a8.043,8.043,0,0,0-.12-1.335,24,24,0,1,0-15.76,0A8.043,8.043,0,0,0,328,232v96a8,8,0,0,0,8,8h48v16H272a8,8,0,0,0-8,8v32a8,8,0,0,0,8,8H488v48H24V432H240a8,8,0,0,0,8-8V392a8,8,0,0,0-8-8H192v-8a8.043,8.043,0,0,0-.12-1.335,24,24,0,1,0-15.76,0A8.043,8.043,0,0,0,176,376v16a8,8,0,0,0,8,8h48v16H16a8,8,0,0,0-8,8v32a8,8,0,0,0,8,8H496a8,8,0,0,0,8-8V392A8,8,0,0,0,496,384ZM336,200a8,8,0,1,1-8,8A8.009,8.009,0,0,1,336,200ZM184,344a8,8,0,1,1-8,8A8.009,8.009,0,0,1,184,344Z" fill="#FFFFFF"/></g></svg>
