<?xml version="1.0"?>
<svg xmlns="http://www.w3.org/2000/svg" height="512px" viewBox="0 0 64 64" width="512px"><g id="Courier-delivery-delivery_man-2" data-name="Courier-delivery-delivery man"><path d="m61 30h-30a1 1 0 0 0 -1 1v3.11a6.97 6.97 0 0 0 -5-2.11h-4v-1.95a9.008 9.008 0 0 0 5-8.05v-3h1a3.009 3.009 0 0 0 3-3v-1a3 3 0 0 0 -.18-1h3.18v-2h-5v-5a5 5 0 0 0 -5-5h-12a5 5 0 0 0 -5 5v5.18a3.01 3.01 0 0 0 -2 2.82v1a3.009 3.009 0 0 0 3 3h1v3a9.008 9.008 0 0 0 5 8.05v1.95h-4a7.008 7.008 0 0 0 -7 7v17a1 1 0 0 0 1 1h27v4a1 1 0 0 0 1 1h30a1 1 0 0 0 1-1v-30a1 1 0 0 0 -1-1zm-34-16a1 1 0 0 1 1 1v1a1 1 0 0 1 -1 1h-1v-3zm-19 3h-1a1 1 0 0 1 -1-1v-1a1 1 0 0 1 1-1h1zm0-10a3.009 3.009 0 0 1 3-3h12a3.009 3.009 0 0 1 3 3v5h-18zm2 15v-8h14v8a7 7 0 0 1 -14 0zm11 12v3.78l-1.91-.38a4 4 0 0 0 1.91-3.4zm-2-3.23v3.23a2 2 0 0 1 -4 0v-3.23a8.811 8.811 0 0 0 4 0zm-6 3.23a4 4 0 0 0 1.91 3.4l-1.91.38zm17 21h-26v-2h12a1 1 0 0 0 1-1h13zm0-5h-13v-4h10a1 1 0 0 0 1-1v-2h2zm0-9h-2a2.006 2.006 0 0 0 -2 2v1h-9a1 1 0 0 0 -1-1h-4v-2h-2v3a1 1 0 0 0 1 1h4v6h-11v-12a5 5 0 0 1 5-5h2v5a1.013 1.013 0 0 0 1 1 1.355 1.355 0 0 0 .2-.02l4.8-.96 4.8.96a1.355 1.355 0 0 0 .2.02 1.013 1.013 0 0 0 1-1v-5h2a5 5 0 0 1 5 5zm14-9h4v8.13l-1.45-.96a.975.975 0 0 0 -1.1 0l-1.45.96zm-12 0h10v3h-10zm28 28h-28v-23h10v5a.984.984 0 0 0 .53.88.963.963 0 0 0 1.02-.05l2.45-1.63 2.45 1.63a1 1 0 0 0 1.55-.83v-5h10zm0-25h-10v-3h10z" fill="#FFFFFF"/><path d="m39 52h-4a1 1 0 0 0 -1 1v4a1 1 0 0 0 1 1h4a1 1 0 0 0 1-1v-4a1 1 0 0 0 -1-1zm-1 4h-2v-2h2z" fill="#FFFFFF"/><path d="m42 56h8v2h-8z" fill="#FFFFFF"/><path d="m42 52h4v2h-4z" fill="#FFFFFF"/><rect height="3" rx="1" width="2" x="13" y="17" fill="#FFFFFF"/><rect height="3" rx="1" width="2" x="19" y="17" fill="#FFFFFF"/></g></svg>
