<?xml version="1.0"?>
<svg xmlns="http://www.w3.org/2000/svg" viewBox="0 0 64 64" width="512px" height="512px"><g id="Courier-delivery-delivery_man" data-name="Courier-delivery-delivery man"><rect x="28" y="17" width="2" height="3" rx="1" fill="#FFFFFF"/><rect x="34" y="17" width="2" height="3" rx="1" fill="#FFFFFF"/><rect x="26" y="55" width="4" height="2" fill="#FFFFFF"/><path d="M46,31H36v-.95A9.008,9.008,0,0,0,41,22V19h1a3.009,3.009,0,0,0,3-3V15a3,3,0,0,0-.18-1H48V12H43V7a5,5,0,0,0-5-5H26a5,5,0,0,0-5,5v5.18A3.01,3.01,0,0,0,19,15v1a3.009,3.009,0,0,0,3,3h1v3a9.008,9.008,0,0,0,5,8.05V31H18a7.008,7.008,0,0,0-7,7v3a1,1,0,0,0,1,1h1V55a4,4,0,0,0,4,4,2.006,2.006,0,0,0,2,2h3a1,1,0,0,0,1,1H41a1,1,0,0,0,1-1h3a2.006,2.006,0,0,0,2-2,4,4,0,0,0,4-4V42h1a1,1,0,0,0,1-1V38A7.008,7.008,0,0,0,46,31ZM42,14a1,1,0,0,1,1,1v1a1,1,0,0,1-1,1H41V14ZM23,17H22a1,1,0,0,1-1-1V15a1,1,0,0,1,1-1h1ZM23,7a3.009,3.009,0,0,1,3-3H38a3.009,3.009,0,0,1,3,3v5H23Zm2,15V14H39v8a7,7,0,0,1-14,0ZM36,33v3.78l-1.91-.38A4,4,0,0,0,36,33Zm-2-2.23V33a2,2,0,0,1-4,0V30.77a8.811,8.811,0,0,0,4,0ZM28,33a4,4,0,0,0,1.91,3.4L28,36.78ZM22,59H19V52h3Zm18,1H24V47h5v2a.99.99,0,0,0,1,1,.986.986,0,0,0,.24-.03l4-1A1,1,0,0,0,35,48V47h5ZM24,45V44h5v1Zm7,2.72V44h2v3.22ZM40,45H35V44h5Zm5,14H42V52h3Zm6-19H44V39H42v2a1,1,0,0,0,1,1h6V55a2.006,2.006,0,0,1-2,2V52a2.006,2.006,0,0,0-2-2H42V43a1,1,0,0,0-1-1H23a1,1,0,0,0-1,1v7H19a2.006,2.006,0,0,0-2,2v5a2.006,2.006,0,0,1-2-2V42h6a1,1,0,0,0,1-1V39H20v1H13V38a5,5,0,0,1,5-5h8v5a1.013,1.013,0,0,0,1,1,1.355,1.355,0,0,0,.2-.02l4.8-.96,4.8.96A1.355,1.355,0,0,0,37,39a1.013,1.013,0,0,0,1-1V33h8a5,5,0,0,1,5,5Z" fill="#FFFFFF"/></g></svg>
