<svg fill="#FFFFFF" xmlns="http://www.w3.org/2000/svg" xmlns:xlink="http://www.w3.org/1999/xlink" version="1.1" x="0px" y="0px" viewBox="0 0 512 512" enable-background="new 0 0 512 512" xml:space="preserve"><g><path fill="#FFFFFF" d="M286.828,92.237c-0.469-1.25-2.375-5.593-7.297-9.733c-4.25-3.578-11.867-7.828-24.016-7.828   c-19.476,0-28.843,11.031-31.312,17.562c-2.086,5.5,0.695,11.656,6.203,13.75c5.359,2.016,11.328-0.547,13.57-5.766   c0.375-0.656,2.82-4.219,11.539-4.219c8.711,0,11.156,3.562,11.539,4.219c1.719,4,5.633,6.453,9.789,6.453   c1.25,0,2.531-0.219,3.781-0.688C286.125,103.894,288.905,97.737,286.828,92.237z"></path><path fill="#FFFFFF" d="M506.151,278.484l-47.499-24.094v-6.062c0-5.891-4.766-10.656-10.656-10.656   c-4.359,0-8.109,2.609-9.75,6.359l-43.593-22.093v-5.5c0-5.891-4.766-10.656-10.655-10.656c-4.188,0-7.781,2.406-9.531,5.906   l-67.671-34.327c1.203-43.108,2.047-75.265,2.047-81.358c0-13.343-5.062-31.077-12.875-45.171   c-10.562-19.015-24.929-29.499-40.452-29.499s-29.882,10.484-40.445,29.499c-7.828,14.094-12.89,31.828-12.89,45.171   c0,6.125,0.852,38.5,2.07,81.843l-66.71,33.843c-1.75-3.5-5.359-5.906-9.539-5.906c-5.891,0-10.664,4.766-10.664,10.656v5.5   l-43.577,22.093c-1.656-3.75-5.398-6.359-9.758-6.359c-5.89,0-10.664,4.766-10.664,10.656v6.062L5.849,278.484   c-3.586,1.828-5.844,5.5-5.844,9.515v42.671c0,3.203,1.445,6.25,3.938,8.266c1.914,1.562,4.297,2.391,6.727,2.391   c0.727,0,1.453-0.062,2.171-0.219l194.958-40.53c0.805,27.312,1.602,54.093,2.32,78.03l-56.226,39.311   c-2.859,2-4.555,5.266-4.555,8.75v42.656c0,3.438,1.656,6.672,4.453,8.672c1.836,1.312,4.008,2,6.211,2   c1.148,0,2.305-0.188,3.429-0.562l49.21-16.703c0.109,3.594,0.18,5.969,0.211,6.922c0.172,5.766,4.898,10.344,10.664,10.344h21.335   l0,0c0,5.891,4.773,10.671,10.664,10.671s10.664-4.78,10.664-10.671l0,0h21.335c5.766,0,10.484-4.578,10.672-10.344   c0.016-0.984,0.094-3.469,0.219-7.25l50.155,17.031c1.125,0.375,2.281,0.562,3.438,0.562c2.203,0,4.375-0.688,6.219-2   c2.781-2,4.438-5.234,4.438-8.672v-42.656c0-3.484-1.688-6.75-4.547-8.75l-57.171-39.967c0.703-23.828,1.5-50.453,2.297-77.577   l195.918,40.733c0.719,0.156,1.453,0.219,2.188,0.219c2.422,0,4.812-0.828,6.719-2.391c2.5-2.016,3.938-5.062,3.938-8.266v-42.671   C511.995,283.984,509.745,280.312,506.151,278.484z M341.342,432.215v22.234l-41.343-14.016l1.062-36.374L341.342,432.215z    M21.34,317.545v-22.999l183.575-93.107c0.695,24.297,1.469,50.843,2.25,77.483L21.34,317.545z M170.666,454.449v-22.234   l40.218-28.108c0.414,13.89,0.781,26.202,1.086,36.327L170.666,454.449z M266.18,458.668v-53.343   c0-5.891-4.773-10.656-10.664-10.656s-10.664,4.766-10.664,10.656v53.343h-10.984c-0.094-2.953-0.203-6.484-0.32-10.531   c0-0.156,0.008-0.297,0.008-0.453l-1.867-63.998c-0.016-0.406-0.055-0.812-0.109-1.203c-3.156-105.686-8.062-272.214-8.062-286.479   c0-18.015,14.484-53.327,32-53.327s31.999,35.312,31.999,53.327c0,18.875-8.577,304.307-10.358,362.665H266.18z M490.651,317.545   l-186.777-38.826c0.781-26.75,1.562-53.405,2.25-77.78l184.527,93.607V317.545z"></path></g></svg>