<?xml version="1.0" encoding="iso-8859-1"?>
<!-- Generator: Adobe Illustrator 19.0.0, SVG Export Plug-In . SVG Version: 6.00 Build 0)  -->
<svg version="1.1" id="Layer_1" xmlns="http://www.w3.org/2000/svg" xmlns:xlink="http://www.w3.org/1999/xlink" x="0px" y="0px"
	 viewBox="0 0 512 512" style="enable-background:new 0 0 512 512;" xml:space="preserve">
<rect x="135.191" y="48.899" style="fill:#EDEDED;" width="207.101" height="149.573"/>
<rect x="238.742" y="48.899" style="fill:#D8D8DA;" width="34.517" height="92.045"/>
<polygon style="fill:#B29A7E;" points="261.753,48.899 261.753,129.438 215.73,129.438 215.73,48.899 135.191,48.899 
	135.191,198.472 342.292,198.472 342.292,48.899 "/>
<rect x="296.27" y="48.899" style="fill:#A58868;" width="46.022" height="149.573"/>
<polygon style="fill:#EDEDED;" points="43.146,198.472 192.718,186.966 238.742,186.966 399.82,198.472 399.82,359.55 
	43.146,359.55 "/>
<polygon style="fill:#D8D8DA;" points="250.247,279.011 215.73,279.011 215.73,186.966 238.742,186.966 250.247,198.472 "/>
<polygon style="fill:#BFA993;" points="238.742,186.966 238.742,267.505 192.719,267.505 192.719,186.966 43.146,186.966 
	43.146,359.55 399.82,359.55 399.82,186.966 "/>
<rect x="342.292" y="186.966" style="fill:#B29A7E;" width="57.528" height="172.584"/>
<polygon style="fill:#EDEDED;" points="468.854,48.899 388.315,129.438 388.315,348.045 8.629,348.045 8.629,394.067 
	434.337,394.067 434.337,152.449 503.371,83.416 "/>
<polygon style="fill:#D8D8DA;" points="486.112,66.157 411.326,140.944 411.326,394.067 434.337,394.067 434.337,152.449 
	503.371,83.416 "/>
<circle style="fill:#797781;" cx="112.18" cy="394.067" r="69.034"/>
<circle style="fill:#EDEDED;" cx="112.18" cy="394.067" r="23.011"/>
<circle style="fill:#797781;" cx="330.787" cy="394.067" r="69.034"/>
<g>
	<path style="fill:#58575D;" d="M112.18,325.034c-5.959,0-11.743,0.755-17.258,2.176c29.774,7.664,51.775,34.692,51.775,66.858
		s-22.001,59.195-51.775,66.858c5.516,1.42,11.3,2.176,17.258,2.176c38.126,0,69.034-30.908,69.034-69.034
		S150.306,325.034,112.18,325.034z"/>
	<path style="fill:#58575D;" d="M330.787,325.034c-5.959,0-11.743,0.755-17.258,2.176c29.774,7.664,51.775,34.692,51.775,66.858
		s-22.001,59.195-51.775,66.858c5.516,1.42,11.3,2.176,17.258,2.176c38.126,0,69.034-30.908,69.034-69.034
		S368.913,325.034,330.787,325.034z"/>
</g>
<circle style="fill:#EDEDED;" cx="330.787" cy="394.067" r="23.011"/>
<g>
	<path style="fill:#D8D8DA;" d="M112.18,371.056c-4.196,0-8.118,1.141-11.506,3.103c6.871,3.981,11.506,11.395,11.506,19.908
		c0,8.512-4.634,15.927-11.506,19.908c3.387,1.962,7.31,3.103,11.506,3.103c12.709,0,23.011-10.302,23.011-23.011
		C135.191,381.358,124.889,371.056,112.18,371.056z"/>
	<path style="fill:#D8D8DA;" d="M330.787,371.056c-4.196,0-8.118,1.141-11.506,3.103c6.871,3.981,11.506,11.395,11.506,19.908
		c0,8.512-4.634,15.927-11.506,19.908c3.387,1.962,7.31,3.103,11.506,3.103c12.709,0,23.011-10.302,23.011-23.011
		C353.798,381.358,343.496,371.056,330.787,371.056z"/>
</g>
<path style="fill:#2E2D31;" d="M428.235,158.552c3.371,3.369,8.834,3.369,12.204,0l69.034-69.034c3.37-3.371,3.37-8.834,0-12.204
	l-34.517-34.517c-3.371-3.369-8.834-3.369-12.204,0l-80.539,80.539c-1.618,1.619-2.527,3.813-2.527,6.103v48.898h-28.764V48.899
	c0-4.767-3.862-8.629-8.629-8.629H135.191c-4.767,0-8.629,3.862-8.629,8.629v129.438H43.146c-4.767,0-8.629,3.862-8.629,8.629
	v152.449H8.629c-4.767,0-8.629,3.862-8.629,8.629v46.022c0,4.767,3.862,8.629,8.629,8.629h26.379
	c4.308,38.776,37.267,69.034,77.172,69.034s72.864-30.257,77.172-69.034h64.262c4.308,38.776,37.267,69.034,77.172,69.034
	s72.864-30.257,77.172-69.034h26.38c4.767,0,8.629-3.862,8.629-8.629V186.971c0-4.767-3.862-8.629-8.629-8.629
	s-8.629,3.862-8.629,8.629v198.467h-17.757c-1.333-11.97-5.423-23.425-11.941-33.504c0.593-1.17,0.933-2.489,0.933-3.889V133.013
	l71.91-71.91l22.314,22.313l-62.932,62.931C424.866,149.718,424.866,155.181,428.235,158.552z M143.82,57.528h63.281v71.91
	c0,4.767,3.862,8.629,8.629,8.629h46.022c4.767,0,8.629-3.862,8.629-8.629V83.42c0-4.767-3.862-8.629-8.629-8.629
	s-8.629,3.862-8.629,8.629v37.389H224.36V57.528h109.303v120.809H143.82V57.528z M51.775,195.595h83.416h48.899v71.91
	c0,4.767,3.862,8.629,8.629,8.629h46.022c4.767,0,8.629-3.862,8.629-8.629v-46.018c0-4.767-3.862-8.629-8.629-8.629
	s-8.629,3.862-8.629,8.629v37.389h-28.764v-63.281h140.944h37.393V333.74c-13.74-11.125-31.001-17.336-48.899-17.336
	c-21.53,0-41.037,8.811-55.118,23.011H167.297c-14.081-14.2-33.588-23.011-55.118-23.011s-41.037,8.811-55.118,23.011h-5.287
	V195.595z M253.615,385.438h-64.262c-1.147-10.331-4.324-20.054-9.13-28.764h82.522
	C257.939,365.384,254.762,375.108,253.615,385.438z M17.258,356.674h25.888h0.991c-4.806,8.71-7.981,18.433-9.13,28.764H17.258
	V356.674z M112.18,454.472c-33.306,0-60.404-27.098-60.404-60.405s27.098-60.404,60.404-60.404s60.404,27.098,60.404,60.404
	S145.486,454.472,112.18,454.472z M330.787,454.472c-33.306,0-60.405-27.098-60.405-60.405s27.098-60.404,60.405-60.404
	c17.161,0,33.572,7.339,45.025,20.137c9.918,11.081,15.38,25.381,15.38,40.267C391.191,427.374,364.093,454.472,330.787,454.472z"/>
<g>
</g>
<g>
</g>
<g>
</g>
<g>
</g>
<g>
</g>
<g>
</g>
<g>
</g>
<g>
</g>
<g>
</g>
<g>
</g>
<g>
</g>
<g>
</g>
<g>
</g>
<g>
</g>
<g>
</g>
</svg>
