<?xml version="1.0" encoding="UTF-8"?>
<svg width="512px" height="512px" viewBox="0 0 512 512" version="1.1" xmlns="http://www.w3.org/2000/svg" xmlns:xlink="http://www.w3.org/1999/xlink">
    <!-- Generator: Sketch 52.6 (67491) - http://www.bohemiancoding.com/sketch -->
    <title>Untitled</title>
    <desc>Created with Sketch.</desc>
    <g id="Page-1" stroke="none" stroke-width="1" fill="none" fill-rule="evenodd">
        <rect id="Rectangle" fill="#FFDD7B" x="41" y="164" width="314" height="282"></rect>
        <g id="delivery">
            <path d="M359,323 L467,323 L467,446 L453.753418,446 C437.521322,417.445964 420.491862,403.54069 402.665039,404.28418 C384.838216,405.027669 371.327148,418.932943 362.131836,446 L359,446 L359,323 Z" id="Rectangle" fill="#FFDD7B"></path>
            <circle id="Oval" fill="#FFFFFF" cx="198" cy="151" r="113"></circle>
            <ellipse id="Oval" fill="#ED4F43" cx="25" cy="431" rx="13" ry="15"></ellipse>
            <ellipse id="Oval" fill="#ED4F43" cx="486" cy="431" rx="13" ry="15"></ellipse>
            <rect id="Rectangle" stroke="#979797" fill="#B9EAF9" x="359.5" y="241.5" width="72" height="76"></rect>
            <circle id="Oval" fill="#FFFFFF" cx="132" cy="454" r="47"></circle>
            <circle id="Oval" fill="#FFFFFF" cx="405" cy="454" r="47"></circle>
            <path d="M272.517834,239.483928 L269.561677,239.483928 C249.899183,254.950018 225.159428,264.257155 198.19639,264.257155 C171.233351,264.257155 146.493597,254.950018 126.831103,239.482166 L123.874946,239.482166 L41.2945848,239.482166 L41.2945848,371.610744 L355.099957,371.610744 L355.099957,239.482166 L272.517834,239.482166 L272.517834,239.483928 Z" id="Path" fill="#007CAD"></path>
            <path d="M487.228534,404.64465 L478.969617,404.64465 L478.969617,313.805372 L445.155272,313.805372 L436.896355,231.225011 L363.358874,231.225011 L363.358874,156.903567 L321.646763,156.903567 C321.828219,154.162339 322.067812,151.436967 322.067812,148.64465 C322.067812,115.364104 308.805626,85.164796 287.376133,62.8843944 L293.165126,57.095401 L307.972336,71.9026102 L319.648978,60.2259674 L278.359679,18.934906 L266.683036,30.6115489 L281.490245,45.4187581 L275.156882,51.7521213 C256.022902,36.5238623 232.322559,26.9119487 206.45883,25.1942772 L206.45883,16.5160722 L231.232058,16.5160722 L231.232058,0 L165.167769,0 L165.167769,16.5160722 L189.940996,16.5160722 L189.940996,25.1960389 C164.077268,26.9137104 140.376924,36.5344326 121.242945,51.753883 L114.909581,45.4205198 L129.716791,30.6133106 L118.040148,18.9366677 L76.745563,60.2259674 L88.4222059,71.9026102 L103.229415,57.095401 L109.018409,62.8843944 C87.588915,85.164796 74.3267292,115.364104 74.3267292,148.64465 C74.3267292,151.435205 74.5663224,154.160578 74.7477789,156.903567 L33.0356678,156.903567 L33.0356678,404.64465 L24.7785126,404.64465 C11.1199411,404.64465 0.00352342874,415.759306 0.00352342874,429.417877 C0.00352342874,443.076449 11.1181794,454.192866 24.7767509,454.192866 L33.0339061,454.192866 L49.5499783,454.192866 L74.3232058,454.192866 C74.3232058,486.060518 100.25388,512 132.128578,512 C164.003276,512 189.933949,486.062279 189.933949,454.192866 L346.835755,454.192866 C346.835755,486.060518 372.766428,512 404.641126,512 C436.515824,512 462.446498,486.062279 462.446498,454.192866 L478.96257,454.192866 L487.221487,454.192866 C500.880059,454.192866 511.994715,443.07821 511.994715,429.417877 C511.994715,415.757544 500.887106,404.64465 487.228534,404.64465 Z M421.948208,247.741083 L428.554637,313.805372 L363.357112,313.805372 L363.357112,247.741083 L421.948208,247.741083 Z M198.19639,41.2910614 C257.389993,41.2910614 305.549978,89.4510471 305.549978,148.646412 C305.549978,207.841776 257.389993,256 198.19639,256 C139.002787,256 90.8428014,207.838253 90.8428014,148.64465 C90.8428014,89.4510471 139.002787,41.2910614 198.19639,41.2910614 Z M33.0356678,437.676794 L24.7785126,437.676794 C20.2280044,437.676794 16.5213573,433.977194 16.5213573,429.417877 C16.5213573,424.85856 20.2297661,421.15896 24.7785126,421.15896 L33.0356678,421.15896 L33.0356678,437.676794 Z M132.132101,495.482166 C109.365466,495.482166 90.8428014,476.959501 90.8428014,454.191105 C90.8428014,431.422708 109.365466,412.901805 132.132101,412.901805 C154.898736,412.901805 173.421401,431.42447 173.421401,454.192866 C173.421401,476.961263 154.900498,495.482166 132.132101,495.482166 Z M132.132101,396.385733 C106.004115,396.385733 83.8893148,413.826705 76.7614185,437.676794 L49.55174,437.678556 L49.55174,404.64465 L49.55174,173.419639 L76.819555,173.419639 C88.3305967,229.88787 138.375617,272.516072 198.19639,272.516072 C258.017163,272.516072 308.060421,229.88787 319.573225,173.419639 L346.84104,173.419639 L346.84104,231.226773 L346.84104,313.807134 L346.84104,330.323206 L346.84104,437.678556 L187.502784,437.678556 C180.374887,413.826705 158.260087,396.385733 132.132101,396.385733 Z M404.646412,495.482166 C381.879777,495.482166 363.357112,476.959501 363.357112,454.191105 C363.357112,431.422708 381.879777,412.900043 404.646412,412.900043 C427.413046,412.900043 445.935711,431.422708 445.935711,454.191105 C445.935711,476.959501 427.414808,495.482166 404.646412,495.482166 Z M462.455307,437.676794 L460.018856,437.676794 C452.89096,413.826705 430.776159,396.385733 404.646412,396.385733 C388.477397,396.385733 373.860453,403.074962 363.357112,413.817897 L363.357112,330.321444 L446.804236,330.321444 L462.453545,330.321444 L462.453545,404.64465 L462.453545,437.676794 L462.455307,437.676794 Z M487.228534,437.676794 L478.969617,437.676794 L478.969617,421.160722 L487.228534,421.160722 C491.779042,421.160722 495.48569,424.860322 495.48569,429.419639 C495.48569,433.978956 491.777281,437.676794 487.228534,437.676794 Z" id="Shape" fill="#333333" fill-rule="nonzero"></path>
            <path d="M132.132101,429.417877 C118.47353,429.417877 107.358874,440.532533 107.358874,454.192866 C107.358874,467.851438 118.47353,478.967856 132.132101,478.967856 C145.790673,478.967856 156.905328,467.8532 156.905328,454.192866 C156.90709,440.532533 145.790673,429.417877 132.132101,429.417877 Z M132.132101,462.450022 C127.581593,462.450022 123.874946,458.750422 123.874946,454.191105 C123.874946,449.631788 127.583355,445.932188 132.132101,445.932188 C136.680848,445.932188 140.389256,449.631788 140.389256,454.191105 C140.389256,458.750422 136.682609,462.450022 132.132101,462.450022 Z" id="Shape" fill="#333333" fill-rule="nonzero"></path>
            <path d="M404.646412,429.417877 C390.98784,429.417877 379.873184,440.532533 379.873184,454.192866 C379.873184,467.851438 390.98784,478.967856 404.646412,478.967856 C418.304983,478.967856 429.419639,467.8532 429.419639,454.192866 C429.421401,440.532533 418.304983,429.417877 404.646412,429.417877 Z M404.646412,462.450022 C400.095903,462.450022 396.387495,458.750422 396.387495,454.191105 C396.387495,449.631788 400.095903,445.932188 404.646412,445.932188 C409.19692,445.932188 412.903567,449.631788 412.903567,454.191105 C412.903567,458.750422 409.19692,462.450022 404.646412,462.450022 Z" id="Shape" fill="#333333" fill-rule="nonzero"></path>
            <path d="M173.423162,148.64465 C173.423162,162.303221 184.537818,173.419639 198.19639,173.419639 C211.854961,173.419639 222.969617,162.304983 222.969617,148.64465 C222.969617,134.984317 211.854961,123.869661 198.19639,123.869661 C196.792304,123.869661 195.437545,124.059926 194.091595,124.281902 L146.657436,68.9464535 L134.11403,79.6981963 L179.467604,132.607764 C175.750387,136.943343 173.423162,142.501552 173.423162,148.64465 Z M206.455307,148.64465 C206.455307,153.195158 202.746898,156.903567 198.198152,156.903567 C193.647643,156.903567 189.940996,153.195158 189.940996,148.64465 C189.940996,144.094142 193.649405,140.385733 198.198152,140.385733 C202.746898,140.387495 206.455307,144.094142 206.455307,148.64465 Z" id="Shape" fill="#333333" fill-rule="nonzero"></path>
            <path d="M190.665061,239.112206 L192.019819,222.65427 C153.809996,219.49904 123.874946,186.99541 123.874946,148.646412 C123.874946,130.495468 130.564175,112.987551 142.711196,99.3289795 L130.37391,88.353499 C115.53499,105.035172 107.358874,126.447049 107.358874,148.64465 C107.358874,195.525631 143.949681,235.26286 190.665061,239.112206 Z" id="Path" fill="#333333"></path>
        </g>
    </g>
</svg>